HIERARCHY
ROOT hip
{
  OFFSET 0 0 0
  CHANNELS 6 Xposition Yposition Zposition Zrotation Yrotation Xrotation
  JOINT abdomen
  {
    OFFSET 0 20.6881 -0.73152
    CHANNELS 3 Zrotation Xrotation Yrotation
    JOINT chest
    {
      OFFSET 0 11.7043 -0.48768
      CHANNELS 3 Zrotation Xrotation Yrotation
      JOINT neck
      {
        OFFSET 0 22.1894 -2.19456
        CHANNELS 3 Zrotation Xrotation Yrotation
        JOINT head
        {
          OFFSET -0.24384 7.07133 1.2192
          CHANNELS 3 Zrotation Xrotation Yrotation
          JOINT leftEye
          {
            OFFSET 4.14528 8.04674 8.04672
            CHANNELS 3 Zrotation Xrotation Yrotation
            End Site
            {
              OFFSET 1 0 0
            }
          }
          JOINT rightEye
          {
            OFFSET -3.6576 8.04674 8.04672
            CHANNELS 3 Zrotation Xrotation Yrotation
            End Site
            {
              OFFSET 1 0 0
            }
          }
        }
      }
      JOINT rCollar
      {
        OFFSET -2.68224 19.2634 -4.8768
        CHANNELS 3 Zrotation Xrotation Yrotation
        JOINT rShldr
        {
          OFFSET -8.77824 -1.95073 1.46304
          CHANNELS 3 Zrotation Xrotation Yrotation
          JOINT rForeArm
          {
            OFFSET -28.1742 -1.7115 0.48768
            CHANNELS 3 Zrotation Xrotation Yrotation
            JOINT rHand
            {
              OFFSET -22.5879 0.773209 7.07136
              CHANNELS 3 Zrotation Xrotation Yrotation
              JOINT rThumb1
              {
                OFFSET -1.2192 -0.487915 3.41376
                CHANNELS 3 Zrotation Xrotation Yrotation
                JOINT rThumb2
                {
                  OFFSET -3.37035 -0.52449 3.41376
                  CHANNELS 3 Zrotation Xrotation Yrotation
                  End Site
                  {
                    OFFSET -1.78271 -1.18214 1.43049
                  }
                }
              }
              JOINT rIndex1
              {
                OFFSET -7.75947 0.938293 5.60832
                CHANNELS 3 Zrotation Xrotation Yrotation
                JOINT rIndex2
                {
                  OFFSET -2.54057 -0.884171 1.56538
                  CHANNELS 3 Zrotation Xrotation Yrotation
                  End Site
                  {
                    OFFSET -1.62519 -0.234802 1.16502
                  }
                }
              }
              JOINT rMid1
              {
                OFFSET -8.24714 1.18213 3.41376
                CHANNELS 3 Zrotation Xrotation Yrotation
                JOINT rMid2
                {
                  OFFSET -3.10165 -0.590103 1.0647
                  CHANNELS 3 Zrotation Xrotation Yrotation
                  End Site
                  {
                    OFFSET -2.48547 -0.328903 0.83742
                  }
                }
              }
              JOINT rRing1
              {
                OFFSET -8.82822 0.546677 1.51678
                CHANNELS 3 Zrotation Xrotation Yrotation
                JOINT rRing2
                {
                  OFFSET -2.60934 -0.819778 -0.0198488
                  CHANNELS 3 Zrotation Xrotation Yrotation
                  End Site
                  {
                    OFFSET -2.33842 -0.294052 0.168128
                  }
                }
              }
              JOINT rPinky1
              {
                OFFSET -8.27202 -0.0477905 -0.4584
                CHANNELS 3 Zrotation Xrotation Yrotation
                JOINT rPinky2
                {
                  OFFSET -1.82734 -0.647385 -0.700984
                  CHANNELS 3 Zrotation Xrotation Yrotation
                  End Site
                  {
                    OFFSET -1.69225 -0.51767 -0.607171
                  }
                }
              }
            }
          }
        }
      }
      JOINT lCollar
      {
        OFFSET 2.68224 19.2634 -4.8768
        CHANNELS 3 Zrotation Xrotation Yrotation
        JOINT lShldr
        {
          OFFSET 8.77824 -1.95073 1.46304
          CHANNELS 3 Zrotation Xrotation Yrotation
          JOINT lForeArm
          {
            OFFSET 28.1742 -1.7115 0.48768
            CHANNELS 3 Zrotation Xrotation Yrotation
            JOINT lHand
            {
              OFFSET 22.5879 0.773209 7.07136
              CHANNELS 3 Zrotation Xrotation Yrotation
              JOINT lThumb1
              {
                OFFSET 1.2192 -0.487915 3.41376
                CHANNELS 3 Zrotation Xrotation Yrotation
                JOINT lThumb2
                {
                  OFFSET 3.37035 -0.52449 3.41376
                  CHANNELS 3 Zrotation Xrotation Yrotation
                  End Site
                  {
                    OFFSET 1.78271 -1.18214 1.43049
                  }
                }
              }
              JOINT lIndex1
              {
                OFFSET 7.75947 0.938293 5.60832
                CHANNELS 3 Zrotation Xrotation Yrotation
                JOINT lIndex2
                {
                  OFFSET 2.54057 -0.884171 1.56538
                  CHANNELS 3 Zrotation Xrotation Yrotation
                  End Site
                  {
                    OFFSET 1.62519 -0.234802 1.16502
                  }
                }
              }
              JOINT lMid1
              {
                OFFSET 8.24714 1.18213 3.41376
                CHANNELS 3 Zrotation Xrotation Yrotation
                JOINT lMid2
                {
                  OFFSET 3.10165 -0.590103 1.0647
                  CHANNELS 3 Zrotation Xrotation Yrotation
                  End Site
                  {
                    OFFSET 2.48547 -0.328903 0.83742
                  }
                }
              }
              JOINT lRing1
              {
                OFFSET 8.82822 0.546677 1.51678
                CHANNELS 3 Zrotation Xrotation Yrotation
                JOINT lRing2
                {
                  OFFSET 2.60934 -0.819778 -0.0198488
                  CHANNELS 3 Zrotation Xrotation Yrotation
                  End Site
                  {
                    OFFSET 2.33842 -0.294052 0.168128
                  }
                }
              }
              JOINT lPinky1
              {
                OFFSET 8.27202 -0.0477905 -0.4584
                CHANNELS 3 Zrotation Xrotation Yrotation
                JOINT lPinky2
                {
                  OFFSET 1.82734 -0.647385 -0.700984
                  CHANNELS 3 Zrotation Xrotation Yrotation
                  End Site
                  {
                    OFFSET 1.69225 -0.51767 -0.607171
                  }
                }
              }
            }
          }
        }
      }
    }
  }
  JOINT rButtock
  {
    OFFSET -8.77824 4.35084 1.2192
    CHANNELS 3 Zrotation Xrotation Yrotation
    JOINT rThigh
    {
      OFFSET 0 -1.70687 -2.19456
      CHANNELS 3 Zrotation Xrotation Yrotation
      JOINT rShin
      {
        OFFSET 0 -36.8199 0.73152
        CHANNELS 3 Zrotation Xrotation Yrotation
        JOINT rFoot
        {
          OFFSET 0.73152 -45.1104 -5.12064
          CHANNELS 3 Zrotation Xrotation Yrotation
          End Site
          {
            OFFSET -1.1221 -3.69964 12.103
          }
        }
      }
    }
  }
  JOINT lButtock
  {
    OFFSET 8.77824 4.35084 1.2192
    CHANNELS 3 Zrotation Xrotation Yrotation
    JOINT lThigh
    {
      OFFSET 0 -1.70687 -2.19456
      CHANNELS 3 Zrotation Xrotation Yrotation
      JOINT lShin
      {
        OFFSET 0 -36.8199 0.73152
        CHANNELS 3 Zrotation Xrotation Yrotation
        JOINT lFoot
        {
          OFFSET -0.73152 -45.1104 -5.12064
          CHANNELS 3 Zrotation Xrotation Yrotation
          End Site
          {
            OFFSET 1.1221 -3.69964 12.103
          }
        }
      }
    }
  }
}
MOTION
Frames:	7
Frame Time:	0.00833333
-5.23867 83.9933 -11.3535 0.0 0.0 0.0 -1.70623 -0.00254495 -0.0464504 -0.470563 0.00242746 -0.0814852 2.4713e-16 0.0 3.47873e-16 6.49156e-16 3.18055e-15 9.42674e-16 -0.0 0.0 0.0 -0.0 0.0 0.0 9.82814e-17 3.68839e-17 2.48481e-16 3.93706e-15 6.39838e-16 3.97569e-15 3.97569e-14 1.43125e-14 6.67917e-14 4.05862e-13 1.45759e-13 6.10667e-13 9.66378e-13 3.46678e-13 1.47578e-12 1.65429e-12 5.97944e-13 2.54285e-12 9.72852e-13 3.49463e-13 1.45669e-12 7.73091 5.47488 0.417314 9.66292e-13 3.46382e-13 1.4726e-12 2.90554 0.965183 0.102902 9.77331e-13 3.47277e-13 1.4718e-12 10.2786 0.731801 0.0259123 9.62714e-13 3.47078e-13 1.48214e-12 2.22167 -0.733487 -0.20892 1.12001e-18 3.61074e-17 -4.96962e-17 3.98928e-17 6.4605e-16 2.38542e-15 3.01656e-14 3.69739e-14 6.36111e-14 4.10764e-13 1.14177e-13 6.23389e-13 9.6208e-13 3.28814e-13 1.46942e-12 1.67933e-12 5.69319e-13 2.54444e-12 9.58937e-13 3.2879e-13 1.4726e-12 -7.73091 5.47488 -0.417314 9.63609e-13 3.28392e-13 1.46624e-12 -2.90554 0.965183 -0.102902 9.57912e-13 3.2869e-13 1.47021e-12 -10.2786 0.731801 -0.0259123 9.67485e-13 3.30778e-13 1.46306e-12 -2.22167 -0.733487 0.20892 -2.03217e-16 0.0 -3.88251e-19 -0.810523 -1.9244 -0.00361453 -0.00901598 -2.07859 -0.0743176 -0.483952 3.99775 0.13615 2.03217e-16 0.0 3.88251e-19 -1.78641 -6.85422 0.170475 -0.00323864 6.8514 -0.0863909 0.512953 -0.00232202 -0.0581838
-6.74841 82.1764 -12.8022 -0.0629 -22.4692 5.78 -2.86483 0.883057 -0.686271 0.584837 -0.267167 -0.269444 -3.48426 -0.697413 -1.40819 2.25611 0.665571 -1.72096 -0.0 0.0 0.0 -0.0 0.0 0.0 -1.82412e-14 -1.87574e-14 9.09304e-14 19.9341 11.216 2.66661 0.619283 16.5816 -40.6166 0.000149128 -0.272572 -0.0383059 -3.83683e-11 -1.54028e-10 -5.57493e-11 -6.72509e-11 -2.66041e-10 -9.5956e-11 -3.83627e-11 -1.54029e-10 -5.57657e-11 7.73091 5.47488 0.417314 -3.83691e-11 -1.54035e-10 -5.57505e-11 2.90554 0.965183 0.102902 -3.83592e-11 -1.54028e-10 -5.57508e-11 10.2786 0.731801 0.0259123 -3.83738e-11 -1.54028e-10 -5.57401e-11 2.22167 -0.733487 -0.20892 -1.83759e-14 -1.87604e-14 9.06264e-14 -20.0449 11.1778 -2.40735 26.5797 -24.2224 -13.8967 -0.0102196 2.25175 -0.315591 4.12748e-11 -3.09552e-10 -2.60943e-10 6.96058e-11 -5.31946e-10 -4.51895e-10 4.12728e-11 -3.09552e-10 -2.60936e-10 -7.73091 5.47488 -0.417314 4.12755e-11 -3.09551e-10 -2.60946e-10 -2.90554 0.965183 -0.102902 4.127e-11 -3.09551e-10 -2.60943e-10 -10.2786 0.731801 -0.0259123 4.12779e-11 -3.09549e-10 -2.6095e-10 -2.22167 -0.733487 0.20892 -2.03217e-16 0.0 -3.88251e-19 -2.87093 -8.60978 1.49505 0.00865195 8.53218 0.0886209 -0.497297 -0.57704 -0.141684 2.03217e-16 0.0 3.88251e-19 -1.53147 -10.3478 1.04905 -0.0281816 14.8581 -0.250245 0.844129 -4.50538 2.35876
-6.87018 82.1894 -12.7125 -0.0251 -22.4281 5.6518 -4.07486 1.81698 -1.37453 1.70613 -0.550791 -0.471337 -7.20457 -1.43195 -2.89787 4.68222 1.36301 -3.54176 -0.0 0.0 0.0 -0.0 0.0 0.0 -3.84052e-14 -3.73534e-14 1.89613e-13 39.7979 22.9931 5.82416 16.5578 7.33148 -82.3564 -8.97284e-05 -0.557224 -0.0783126 -8.62016e-11 -2.85992e-10 -1.0234e-10 -1.50885e-10 -4.93874e-10 -1.76048e-10 -8.61969e-11 -2.85996e-10 -1.02354e-10 7.73091 5.47488 0.417314 -8.6203e-11 -2.86006e-10 -1.02339e-10 2.90554 0.965183 0.102902 -8.61944e-11 -2.85992e-10 -1.02339e-10 10.2786 0.731801 0.0259123 -8.62091e-11 -2.85992e-10 -1.02328e-10 2.22167 -0.733487 -0.20892 -3.85829e-14 -3.73588e-14 1.89299e-13 -40.158 22.9275 -5.2394 38.0196 -44.4134 -37.9004 0.00614396 4.65519 -0.654114 9.72231e-11 -6.87146e-10 -5.57517e-10 1.64315e-10 -1.18103e-09 -9.65478e-10 9.72224e-11 -6.87145e-10 -5.57504e-10 -7.73091 5.47488 -0.417314 9.72226e-11 -6.87143e-10 -5.57518e-10 -2.90554 0.965183 -0.102902 9.72176e-11 -6.87144e-10 -5.57516e-10 -10.2786 0.731801 -0.0259123 9.72236e-11 -6.87143e-10 -5.57523e-10 -2.22167 -0.733487 0.20892 -2.03217e-16 0.0 -3.88251e-19 -4.66461 -15.67 3.15098 -0.0414266 19.7498 0.274917 -0.558592 -5.41372 -0.431619 2.03217e-16 0.0 3.88251e-19 -1.14447 -14.0461 2.01556 -0.000213769 23.3205 -0.44301 1.60908 -9.23742 4.95326
-6.9664 82.2301 -12.6214 0.0513 -22.3141 5.5144 -5.12266 2.65289 -1.96778 2.69033 -0.806314 -0.645415 -10.5556 -2.08718 -4.22706 6.88816 1.98951 -5.16565 -0.0 0.0 0.0 -0.0 0.0 0.0 -5.49202e-14 -5.63459e-14 2.72294e-13 56.16 33.3267 9.40417 22.4243 -23.089 -101.863 -0.000646101 -0.817714 -0.114928 -1.17038e-10 -4.62777e-10 -1.702e-10 -2.05061e-10 -7.9932e-10 -2.92954e-10 -1.17034e-10 -4.62785e-10 -1.70211e-10 7.73091 5.47488 0.417314 -1.1704e-10 -4.62799e-10 -1.70197e-10 2.90554 0.965183 0.102902 -1.17032e-10 -4.62779e-10 -1.70196e-10 10.2786 0.731801 0.0259123 -1.17047e-10 -4.62777e-10 -1.70185e-10 2.22167 -0.733487 -0.20892 -5.51301e-14 -5.63533e-14 2.71979e-13 -56.8574 33.2726 -8.48352 31.2573 -49.4785 -71.1958 0.0441974 6.75441 -0.952655 1.219e-10 -9.29314e-10 -7.85769e-10 2.05459e-10 -1.59698e-09 -1.36077e-09 1.21901e-10 -9.29313e-10 -7.85752e-10 -7.73091 5.47488 -0.417314 1.21899e-10 -9.29309e-10 -7.85769e-10 -2.90554 0.965183 -0.102902 1.21894e-10 -9.2931e-10 -7.85769e-10 -10.2786 0.731801 -0.0259123 1.21899e-10 -9.2931e-10 -7.85775e-10 -2.22167 -0.733487 0.20892 -2.03217e-16 0.0 -3.88251e-19 -5.87232 -21.9197 4.78872 -0.157158 29.7529 0.473936 -0.658104 -9.72591 -0.706829 2.03217e-16 0.0 3.88251e-19 -0.685703 -17.3193 2.88851 0.0812709 30.8704 -0.645541 2.66987 -13.4152 7.37301
-7.08386 82.2534 -12.5679 0.0632 -22.2286 5.4131 -5.80828 3.24513 -2.32165 3.33568 -0.991625 -0.749907 -12.9111 -2.54897 -5.15261 8.46026 2.44542 -6.29466 -0.0 0.0 0.0 -0.0 0.0 0.0 -6.23129e-14 -7.63298e-14 3.14974e-13 66.4345 40.3384 12.7575 23.776 -49.6798 -103.986 -0.00127067 -1.0178 -0.143057 -1.05381e-10 -7.51619e-10 -2.91231e-10 -1.85596e-10 -1.2988e-09 -5.01893e-10 -1.05378e-10 -7.51628e-10 -2.9124e-10 7.73091 5.47488 0.417314 -1.05383e-10 -7.51643e-10 -2.91227e-10 2.90554 0.965183 0.102902 -1.05377e-10 -7.51621e-10 -2.91226e-10 10.2786 0.731801 0.0259123 -1.05391e-10 -7.51619e-10 -2.91215e-10 2.22167 -0.733487 -0.20892 -6.2528e-14 -7.63384e-14 3.14676e-13 -67.3792 40.3297 -11.6294 27.1068 -43.7229 -90.8965 0.081028 8.09391 -1.14523 6.83994e-11 -8.32914e-10 -8.43219e-10 1.12689e-10 -1.43007e-09 -1.46035e-09 6.84006e-11 -8.32915e-10 -8.432e-10 -7.73091 5.47488 -0.417314 6.83996e-11 -8.32911e-10 -8.43219e-10 -2.90554 0.965183 -0.102902 6.83932e-11 -8.3291e-10 -8.43219e-10 -10.2786 0.731801 -0.0259123 6.83968e-11 -8.32909e-10 -8.43225e-10 -2.22167 -0.733487 0.20892 -2.03217e-16 0.0 -3.88251e-19 -6.41818 -26.1982 6.11086 -0.289695 36.7208 0.646477 -0.762358 -12.7276 -0.933999 2.03217e-16 0.0 3.88251e-19 -0.297516 -19.5442 3.45614 0.177782 36.1399 -0.813759 3.64938 -16.2971 9.18595
-7.21078 82.2705 -12.5274 0.0792 -22.2157 5.2978 -5.99986 3.49568 -2.32745 3.49927 -1.08224 -0.753541 -13.8458 -2.72467 -5.51137 9.11782 2.66365 -6.73123 -0.0 0.0 0.0 -0.0 0.0 0.0 -5.6015e-14 -9.88945e-14 3.04629e-13 69.9084 42.9571 14.6009 26.2737 -60.3208 -100.428 -0.00181836 -1.1708 -0.16457 -2.87899e-11 -1.29952e-09 -5.24711e-10 -5.36565e-11 -2.2467e-09 -9.05385e-10 -2.87868e-11 -1.29952e-09 -5.2472e-10 7.73091 5.47488 0.417314 -2.87915e-11 -1.29954e-09 -5.24709e-10 2.90554 0.965183 0.102902 -2.87856e-11 -1.29952e-09 -5.24707e-10 10.2786 0.731801 0.0259123 -2.87992e-11 -1.29952e-09 -5.24696e-10 2.22167 -0.733487 -0.20892 -5.6191e-14 -9.89026e-14 3.04384e-13 -70.7634 42.9907 -13.59 27.1309 -40.0732 -96.2026 0.0917774 8.36032 -1.18396 -1.24998e-10 -1.55959e-10 -6.30436e-10 -2.20001e-10 -2.63305e-10 -1.09198e-09 -1.24996e-10 -1.55966e-10 -6.30417e-10 -7.73091 5.47488 -0.417314 -1.24993e-10 -1.55962e-10 -6.30437e-10 -2.90554 0.965183 -0.102902 -1.25003e-10 -1.55954e-10 -6.30435e-10 -10.2786 0.731801 -0.0259123 -1.25e-10 -1.55954e-10 -6.30442e-10 -2.22167 -0.733487 0.20892 -2.03217e-16 0.0 -3.88251e-19 -6.43545 -27.7541 6.81959 -0.356191 39.4351 0.725749 -0.830876 -13.8905 -1.08455 2.03217e-16 0.0 3.88251e-19 -0.1213 -20.3018 3.5543 0.226652 38.218 -0.889124 4.13476 -17.434 10.035
-7.34139 82.2815 -12.4914 0.0257 -22.1405 5.2073 -5.8426 3.50241 -2.08486 3.31957 -1.10505 -0.685286 -13.7578 -2.69788 -5.4648 9.11245 2.71372 -6.67252 -0.0 0.0 0.0 -0.0 0.0 0.0 -3.99819e-14 -1.23246e-13 2.56268e-13 69.1048 42.5434 14.9111 26.112 -58.9394 -100.436 -0.00225874 -1.28839 -0.181105 9.39244e-11 -2.02759e-09 -8.36702e-10 1.58175e-10 -3.50647e-09 -1.44471e-09 9.39278e-11 -2.02759e-09 -8.36712e-10 7.73091 5.47488 0.417314 9.39238e-11 -2.0276e-09 -8.36703e-10 2.90554 0.965183 0.102902 9.39292e-11 -2.02759e-09 -8.36699e-10 10.2786 0.731801 0.0259123 9.39167e-11 -2.02759e-09 -8.3669e-10 2.22167 -0.733487 -0.20892 -4.00875e-14 -1.23252e-13 2.561e-13 -69.6034 42.6009 -14.2717 27.0869 -40.4947 -95.6582 0.0802954 7.86081 -1.11215 -4.16871e-10 9.30604e-10 -2.26109e-10 -7.21564e-10 1.60889e-09 -3.91929e-10 -4.1687e-10 9.30589e-10 -2.26093e-10 -7.73091 5.47488 -0.417314 -4.1686e-10 9.30592e-10 -2.26113e-10 -2.90554 0.965183 -0.102902 -4.16876e-10 9.30609e-10 -2.26109e-10 -10.2786 0.731801 -0.0259123 -4.16872e-10 9.3061e-10 -2.26115e-10 -2.22167 -0.733487 0.20892 -2.03217e-16 0.0 -3.88251e-19 -6.19224 -27.3799 7.02258 -0.347718 39.1116 0.717694 -0.861018 -13.7406 -1.17639 2.03217e-16 0.0 3.88251e-19 -0.11838 -20.0133 3.30751 0.221385 38.0169 -0.883233 4.16908 -17.3453 10.1576
